<?xml version="1.0" encoding="iso-8859-1"?>
<!-- Uploaded to: SVG Repo, www.svgrepo.com, Generator: SVG Repo Mixer Tools -->
<svg height="800px" width="800px" version="1.1" id="Layer_1" xmlns="http://www.w3.org/2000/svg" xmlns:xlink="http://www.w3.org/1999/xlink" 
	 viewBox="0 0 512.001 512.001" xml:space="preserve">
<path style="fill:#FFFFFF;" d="M256,507.609C236.641,498.697,50.665,409.824,50.665,288V68.496c5.416,0.544,15.36,1.312,28.44,1.312
	c42.568,0,121.496-8.416,176.896-64.072c55.4,55.656,134.328,64.072,176.896,64.072c13.08,0,23.024-0.8,28.44-1.312V288
	C461.336,409.864,275.36,498.705,256,507.609z"/>
<path style="fill:#939393;" d="M256,11.344c56.24,54.176,134.4,62.464,176.896,62.464c10.24,0,18.616-0.472,24.44-0.936V288
	c0,116.496-175.2,202.976-201.336,215.2C229.904,490.984,54.664,404.584,54.664,288V72.864c5.824,0.472,14.192,0.936,24.44,0.936
	C121.6,73.808,199.76,65.52,256,11.344 M256,0C201.808,56.944,122.936,65.808,79.104,65.808C68.263,65.9,57.427,65.296,46.664,64
	V288c0,132,209.337,224.001,209.337,224.001s209.337-92,209.337-224.001V64c-10.764,1.296-21.599,1.899-32.44,1.808
	C389.064,65.808,310.192,56.952,256,0z"/>
<path style="fill:#E21B1B;" d="M249.384,372.88v-29.744c-17.436-0.201-34.532-4.847-49.672-13.496L208,300.8
	c14.497,8.587,30.985,13.24,47.832,13.496c19.32,0,32.504-9.504,32.504-24.224c0-13.8-10.728-22.688-33.424-30.968
	c-32.192-11.656-53.048-26.4-53.048-54.888c0-26.4,18.4-46.608,49.368-52.128v-30.04h25.144v28.512
	c14.686,0.164,29.148,3.623,42.32,10.12l-8.296,28.216c-12.873-6.743-27.172-10.309-41.704-10.4
	c-21.464,0-29.136,11.04-29.136,21.464c0,12.576,11.048,19.624,37.112,30.056c34.344,12.88,49.672,29.44,49.672,56.728
	c0,26.064-18.096,49.064-51.824,54.584v31.552L249.384,372.88L249.384,372.88z"/>
</svg>